<svg width="17" height="16" viewBox="0 0 17 16" fill="none" xmlns="http://www.w3.org/2000/svg">
<path d="M8.33333 15.2777L7.36104 14.4027C5.9141 13.0822 4.71792 11.943 3.7725 10.9852C2.82694 10.0274 2.0741 9.17007 1.51396 8.41313C0.953681 7.65618 0.561319 6.96757 0.336875 6.34729C0.112292 5.72687 0 5.09722 0 4.45833C0 3.18833 0.425903 2.12778 1.27771 1.27667C2.12965 0.425556 3.18521 0 4.44438 0C5.21299 0 5.93063 0.175903 6.59729 0.527709C7.26396 0.879653 7.84264 1.38431 8.33333 2.04167C8.87958 1.35653 9.4791 0.844931 10.1319 0.506875C10.7847 0.168959 11.4815 0 12.2223 0C13.4815 0 14.537 0.425556 15.389 1.27667C16.2408 2.12778 16.6667 3.18833 16.6667 4.45833C16.6667 5.09722 16.5544 5.72687 16.3298 6.34729C16.1053 6.96757 15.713 7.65618 15.1527 8.41313C14.5926 9.17007 13.8397 10.0274 12.8942 10.9852C11.9488 11.943 10.7526 13.0822 9.30563 14.4027L8.33333 15.2777ZM8.33333 13.4306C9.71514 12.1713 10.8523 11.0915 11.7448 10.191C12.6372 9.29049 13.3449 8.5034 13.8681 7.82979C14.3912 7.15618 14.7569 6.55604 14.9652 6.02937C15.1735 5.50271 15.2777 4.97972 15.2777 4.46042C15.2777 3.57014 14.9907 2.83563 14.4167 2.25688C13.8426 1.67826 13.1122 1.38896 12.2254 1.38896C11.5307 1.38896 10.8877 1.59611 10.2965 2.01042C9.70535 2.42472 9.25007 2.99069 8.93063 3.70833H7.72229C7.41201 3 6.96132 2.43632 6.37021 2.01729C5.77896 1.5984 5.13597 1.38896 4.44125 1.38896C3.55444 1.38896 2.82403 1.67826 2.25 2.25688C1.67597 2.83563 1.38896 3.5709 1.38896 4.46271C1.38896 4.98299 1.49313 5.50813 1.70146 6.03813C1.90979 6.56826 2.27549 7.17243 2.79854 7.85063C3.32174 8.52896 4.03243 9.31604 4.93063 10.2119C5.82868 11.1077 6.96292 12.1806 8.33333 13.4306Z" fill="currentColor"/>
</svg>
