<svg width="18" height="18" viewBox="0 0 18 18" fill="none" xmlns="http://www.w3.org/2000/svg">
<g clip-path="url(#clip0_524_69)">
<path d="M13.1984 12.4137L17.1431 16.7267L16.1262 17.5953L12.1923 13.2949C10.9733 14.1766 9.50671 14.6501 8.00233 14.6475C4.05666 14.6475 0.857422 11.4592 0.857422 7.52526C0.857422 3.59136 4.05666 0.404785 8.00233 0.404785C11.948 0.404785 15.1472 3.59317 15.1472 7.52526C15.1494 9.34453 14.4516 11.0949 13.1984 12.4137ZM8.00233 13.3121C11.2088 13.3121 13.8073 10.7218 13.8073 7.52617C13.8073 4.33055 11.2088 1.74021 8.00233 1.74021C4.79585 1.74021 2.19737 4.33055 2.19737 7.52617C2.19737 10.7218 4.79585 13.3121 8.00233 13.3121Z" fill="currentColor" stroke="currentColor" stroke-width="0.428571"/>
</g>
<defs>
<clipPath id="clip0_524_69">
<rect width="18" height="18" fill="white"/>
</clipPath>
</defs>
</svg>
